<!DOCTYPE svg PUBLIC "-//W3C//DTD SVG 1.1//EN" "http://www.w3.org/Graphics/SVG/1.1/DTD/svg11.dtd">
<!-- Uploaded to: SVG Repo, www.svgrepo.com, Transformed by: SVG Repo Mixer Tools -->
<svg fill="#daa520" version="1.1" id="Capa_1" xmlns="http://www.w3.org/2000/svg" xmlns:xlink="http://www.w3.org/1999/xlink" width="105px" height="105px" viewBox="-22.41 -22.41 217.23 217.23" xml:space="preserve" stroke="#daa520" stroke-width="0.00172408">
<g id="SVGRepo_bgCarrier" stroke-width="0"/>
<g id="SVGRepo_tracerCarrier" stroke-linecap="round" stroke-linejoin="round"/>
<g id="SVGRepo_iconCarrier"> <g> <g> <path d="M131.178,123.281c6.71-6.54,4.615-12.995-4.665-14.359l-5.766-0.834c-8.379-1.211-18.098-7.861-22.969-15.32l0.323-0.268 c0.365-0.348,1.491-1.419,1.321-3.13l-0.256-1.431l0.066-1.072c0.604-1.717-0.383-2.996-0.651-3.312l-1.047-1.071l-0.414-0.024 c-1.242-0.986-2.789-0.913-4.53,0.207l-0.256,0.146c-1.814-2.604-3.961-3.843-6.107-3.87l59.205-78.937h-38.971L86.209,27.018 L65.945,0H26.974l59.205,78.937c-2.725,0-5.45,2.003-7.521,6.189l-2.582,5.237c-1.047,2.125-2.545,4.219-4.326,6.186l-0.362,0.062 l-1.154,0.322c-1.504-0.627-2.762-0.651-3.827-0.091c-0.67,0.359-1.182,0.877-1.528,1.57l-0.113,0.08l-0.986,0.627l-1.257,0.305 l-0.78,1.473c-0.563,1.072-0.499,2.326-0.033,3.551c-3.316,1.845-6.784,3.172-10.05,3.646l-5.767,0.835 c-9.273,1.357-11.375,7.812-4.664,14.353l4.177,4.066c2.411,2.352,4.481,5.542,6.098,9.08l-0.046,0.779l-0.085,0.237 c-0.268,0.548-0.779,1.571-0.85,3.008l-0.143,0.682c-0.106,0.341-0.25,0.816-0.292,1.389l-0.356,1.479 c-0.466,0.755-1.096,1.662-1.589,2.296c-0.542,0.694-0.767,1.321-0.767,1.498c-0.6,0.56-1.315,1.352-1.851,1.948l-0.444,0.499 c-0.649,0.646-1.008,1.279-1.19,1.863c-2.019,2.284-4.041,4.933-3.565,7.745c0.728,4.189,3.446,6.771,6.878,6.613 c1.166-0.012,2.469-0.115,3.796-0.231c0.904-0.073,1.75-0.097,2.618-0.134c0.643,6.004,5.499,8.147,12.34,4.555l5.158-2.703 c2.064-1.09,4.457-1.906,7.015-2.448l1.108,0.036c1.355,0.274,2.612-0.023,3.581-0.693c6.533-0.536,13.451,0.469,18.462,3.105 l5.158,2.703c5.961,3.136,10.425,1.906,11.91-2.436c0.651,0.146,1.291,0.28,1.845,0.384l1.413,0.304 c1.309,0.579,2.381,0.561,3.245,0.549l0.938,0.012l1.097,0.03c1.485,0,3.166-0.207,4.323-1.485l1.12-1.461l-0.231-1.462 c-0.17-1.157-0.853-2.021-1.547-2.618c-0.572-1.218-1.741-3.057-3.872-3.885c-1.852-0.719-3.581-1.291-5.87-1.145 c-0.694,0.055-1.803,0.012-2.947-0.269l-0.194-1.133c-1.584-9.231,2.612-22.152,9.328-28.686L131.178,123.281z M103.15,128.401 l2.411-4.877l2.417,4.877l5.377,0.78l-3.897,3.793l0.92,5.371l-4.816-2.533l-4.811,2.533l0.913-5.371l-3.896-3.793L103.15,128.401 z M98.071,113.965l3.861,0.56l-2.789,2.728l0.657,3.849l-3.458-1.814l-3.459,1.814l0.657-3.849l-2.788-2.728l3.86-0.56 l1.723-3.496L98.071,113.965z M121.021,160.54c1.571-0.104,2.783,0.262,4.537,0.944c1.753,0.676,2.441,2.959,2.441,2.959 s1.468,0.865,0.919,1.461c-0.548,0.604-2.362,0.445-3.416,0.421c-1.041-0.024-1.723,0.104-2.618-0.286 c-0.883-0.391-2.356-0.5-4.189-0.938c-1.832-0.451-2.965-1.182-5.364-2.813c-2.411-1.62-6.917-2.484-9.901-3.271 c-2.989-0.785-6.187-2.441-9.2-3.117c-3.015-0.676-5.319-0.7-7.489-0.785c-2.178-0.086-6.367-2.332-8.878-3.203 c-2.515-0.865-5.581-1.937-7.544-2.746c-0.42,0.055-3.438,2.539-5.949,4.316c-2.512,1.791-6.391,2.917-6.391,2.917l0.03,0.201 c0,0.134,7.127,1.315,8.747,1.522c1.629,0.219,1.809-2.01,3.617-2.144c1.814-0.134,2.856,1.937,4.223,2.679 c1.358,0.731,2.43,0.999,3.483,1.279c1.047,0.292,1.516,0.633,2.694,1.291c1.178,0.651,0.393,1.521-0.892,1.254 c-1.285-0.256-4.189,0.024-6.783,0.213c-2.594,0.184-4.82-0.188-8.306-0.444c-3.486-0.268-7.021,0.731-9.508,0.651 c-2.481-0.078-5.629,0.421-8.093,0.445c-2.463,0.023-3.431-2.047-3.772-4.037c-0.338-1.991,2.886-5.134,3.51-5.913l0.365-0.95 c0.369-0.365,1.416-1.619,2.229-2.374c0.81-0.768,0.548-1.157,1.096-1.863c0.548-0.706,1.26-1.729,1.784-2.569 c0.524-0.841,0.761-2.223,0.81-2.851c0.049-0.633,0.393-1.108,0.441-2.204c0.052-1.096,0.582-1.754,0.73-2.229l0.244-1.412 l0.101-0.762c0.024-0.128-0.262-1.882-0.917-3.27c-0.654-1.395-0.654-3.8-0.338-5.608c0.317-1.809,2.332-6.546,3.2-8.02 c0.864-1.462,4.137-3.824,4.795-4.165c0.648-0.341,1.203-1.334,2.067-1.809c0.868-0.475,1.885-4.141,2.253-6.211 s-0.636-2.563-1.129-3.488c-0.5-0.914-0.155-1.571,0.344-1.62l0.734-0.28l0.737-0.396c0.076-0.603,0.648-0.311,0.935-0.677 l0.475-1.047l1.939,0.597l1.129-0.104c0.262-0.262,0.704-0.341,1.282-0.469c0.575-0.134,1.303-0.347,2.201-0.323 c2.201-0.968,3.225,1.699,3.225,1.699l0.81-0.779c0.289-0.548,1.629-2.095,3.2-3.361c1.571-1.254,4.896-3.556,5.212-3.896 c0.319-0.342,0.555-0.865,0.868-1.84c0.311-0.961,1.153-2.935,1.309-3.318l0.076-1.473c-0.158-0.445,0.024-0.896,0.765-0.098 c0.73,0.779,0.213,2.168,0.213,2.168l1.022-0.944l1.225-0.779l1.291-1.071l1.595-0.683l-0.548,1.048l-0.792,0.785l-1.352,1.15 l0.231,0.158l1.656-1.339l1.827-1.12l-1.035,1.516c-0.269,0.396-0.427,0.603-1.182,1.334l0.841-0.652l0.676-0.761l0.578,0.286 l-1.182,1.626l-0.889,0.992l0.548,0.311l0.469-0.39l1.103-0.42l-0.28,0.871l-1.157,0.864l-1.132,0.682l0.292,0.603l-0.913,0.865 l-0.914,0.396l0.049,0.414l1.31-0.341l0.499,0.451l-1.078,0.779l-1.022,0.268l-1.389,0.572l-1.175,0.286 c0,0-0.499,0.7-1.206,0.944c-0.703,0.23-0.758,0.463-1.856,1.547c-1.097,1.071-3.069,3.221-3.535,3.744l-1.416,1.37l-1.367,2.095 l-0.155,2.326l-0.911,1.412c0,0,0.63-0.23,1.44,0.244l-1.389,0.055c0,0,0.834-0.128,1.571,0.286 c-0.417-0.213-0.968-0.183-1.571-0.049l1.103,0.341c-0.868-0.499-1.528,0.049-1.528,0.049l0.426,0.109l0.234,0.311v0.287 l0.159,0.414c0.679,0.949-0.238,1.498-0.42,1.57l-0.079,0.316l1.023,1.438l-0.131,0.998l-0.712,0.445l-0.393,0.42l-0.5,0.152 l-0.679,0.104l-0.606-0.572l-0.648-0.244l-0.365,0.207l-0.183-0.262l-0.448-0.554c-1.154,2.076-3.249,3.507-3.249,3.507v-0.049 c-0.737,1.157-2.832,3.41-2.914,3.562c-0.073,0.152-0.889,1.383-1.303,2.539c-0.423,1.157-1.178,1.754-1.233,1.961l-0.286,1.047 l-0.344,1.097l-0.317,1.814l0.603,0.646c0.469,0.316,0.999,0.785,1.833,1.309c0.837,0.524,1.336,0.786,2.095,1.285 c0.761,0.5,2.438,0.969,3.641,1.729c1.206,0.755,3.931,2.88,4.159,3.093l0.5,0.986l0.606,0.269l-0.18,0.73 c3.011,2.277,7.879,5.157,10.787,6.625c2.904,1.462,6.205,1.596,9.821,2.119c3.617,0.523,11.972,6.997,14.541,8.805 C116.449,160.57,119.451,160.644,121.021,160.54z M87.412,136.195l-2.594-1.363l-2.594,1.363l0.5-2.886l-2.095-2.046l2.892-0.42 l1.297-2.619l1.297,2.619l2.896,0.42l-2.098,2.046L87.412,136.195z"/> </g> </g> </g>
</svg>