<svg xmlns="http://www.w3.org/2000/svg" viewBox="0 0 80.92 82.88"><defs><style>.cls-1,.cls-2{fill:#daa628;}.cls-2{font-size:18.75px;font-family:BebasNeue-Regular, Bebas Neue;}</style></defs><g id="Layer_2" data-name="Layer 2"><g id="Layer_1-2" data-name="Layer 1"><path class="cls-1" d="M4.19,15.29C5.17,17,6,18.52,6.91,20q4.14,7.22,8.3,14.42a1.92,1.92,0,0,0,2.33.73c.32-.17.22-.38.11-.59a4.46,4.46,0,0,0-1.09-1.4,8.26,8.26,0,0,1-2.08-2.09c.13,0,.18,0,.2,0,5.21,3.77,10.16,1.59,13.27-1.53,5.66-5.67,6.84-16.65,2.44-23.34-2.62-4-6-5.32-11.06-4.32C20.39.7,23.4-.28,25.67.07a39,39,0,0,1,8.56,2.19C38.05,3.8,40,6.89,41.12,10.63c.58,1.92.56,1.92,2.6,1.92h4.46c-.46.89-.86,1.6-1.22,2.33-.23.47-.63.41-1,.41a37.41,37.41,0,0,0-3.81.13c1.41.57,2.94.5,4.37.9A2.1,2.1,0,0,0,49.3,15a7.8,7.8,0,0,1,3.4-3.44,3.43,3.43,0,0,1,2.63-.38c-2.7.94-4.17,3-5.23,5.46a8,8,0,0,0,2.54.49,2.65,2.65,0,0,1,2.1,1.4,5,5,0,0,1-.15,5.34,2.57,2.57,0,0,1-3,1.28A13.52,13.52,0,0,0,50.21,25c-1.54-.22-1.6-.14-1.26,1.44a7.09,7.09,0,0,0,2.46,4.26,3.5,3.5,0,0,1-2.33-1.46,8,8,0,0,1-1.86-4c-.19-1.11-1.06-1-1.63-.88s-.24.77-.2,1.19a15.81,15.81,0,0,0,1.77,5.56c.58,1.1,1.4,1.29,3.25.61a13,13,0,0,1,7-.69c1.38.27,2.07.09,2.58-.64,3.64-5.17,4.38-10.72,1.83-16.53C60.08,9.81,57.11,8.42,52,9A8.06,8.06,0,0,1,57.89,7.7a33.21,33.21,0,0,1,5.79,1.47,8.11,8.11,0,0,1,4,2.75,1.67,1.67,0,0,0,1.56.64c3.55,0,7.1,0,10.66,0,1.76,0,1.07,0-.43,3a73.21,73.21,0,0,1-4.22,7.48C73,26.51,73,26.66,71.94,28.45c1.72.2,3.27.41,4.83.56.8.07,1.18.3,1.17,1.23s-.38,1.09-1.19,1.17Q60.19,33,43.63,34.69q-13.87,1.38-27.76,2.72c-3.86.38-7.7.8-11.56,1.14-.46.05-1.26.53-1.33-.58-.06-.91,0-1.46,1.2-1.53,2.47-.15,4.93-.47,7.39-.7,1.46-.14,1.46-.12.76-1.33Q6.41,24.15.49,13.87c-.75-1.3-.75-1.31.81-1.31,3,0,5.91,0,8.86,0,.81,0,1.06.16.83,1-.53,2,0,1.69-2.08,1.72C7.41,15.31,5.91,15.29,4.19,15.29Zm72.48,0H70.16c-.45,0-.5.21-.45.61.13,1.2.79,1.57,1.93,1.43.4-.05,1-.26,1.21.15s-.26.79-.48,1.16Q69.29,24,66.2,29.29c-.18.32-.5.61-.42,1.05,2.24-.11,2.24-.11,3.33-2l5.4-9.29C75.2,17.88,75.88,16.68,76.67,15.3Z"/><path class="cls-1" d="M77.91,49.94c-.08-1.08-.89-.59-1.35-.55-3.85.35-7.7.76-11.55,1.14L37,53.28c-11,1.08-21.9,2.19-32.86,3.25-.81.08-1.21.22-1.22,1.16s.39,1.09,1.2,1.13c7.26.36,14.51.77,21.76,1.11A1.9,1.9,0,0,1,27.68,61c2.21,3.92,4.48,7.82,6.73,11.72l5.85,10.14c.39-.65.66-1.09.92-1.54Q49,67.9,56.79,54.43a2.2,2.2,0,0,1,2-1.22c6-.55,12-1.19,18-1.71C77.89,51.39,78,50.82,77.91,49.94ZM40.27,78C36.07,70.64,32,63.57,27.94,56.5a2,2,0,0,1,2.91,1c2.84,5.08,5.79,10.1,8.71,15.13.2.34.41.67.66,1.07a3.7,3.7,0,0,0,.91-1.27C44.45,66.74,47.8,61.08,51,55.35a2.9,2.9,0,0,1,3.24-1.53C49.62,61.86,45,69.79,40.27,78Z"/><path class="cls-1" d="M15,26.29c.17-.13.3,0,.42.08,4,2.18,7.77.33,10.25-5.43a12.34,12.34,0,0,0,.18-9.47C24.32,7.74,22,5.32,18.21,5.92A5.4,5.4,0,0,1,23.9,5.4a8.24,8.24,0,0,1,4.26,4.67,16,16,0,0,1-1.58,15.52A8.16,8.16,0,0,1,22,29,6.28,6.28,0,0,1,15,26.29Z"/><text class="cls-2" transform="matrix(1.11, -0.11, 0.1, 1, 5.75, 54.4)">FITNESS</text></g></g></svg>