<!DOCTYPE svg PUBLIC "-//W3C//DTD SVG 1.1//EN" "http://www.w3.org/Graphics/SVG/1.1/DTD/svg11.dtd">
<!-- Uploaded to: SVG Repo, www.svgrepo.com, Transformed by: SVG Repo Mixer Tools -->
<svg fill="#0c0c0c" height="132px" width="132px" version="1.1" id="Layer_1" xmlns="http://www.w3.org/2000/svg" xmlns:xlink="http://www.w3.org/1999/xlink" viewBox="-267.3 -267.3 864.60 864.60" xml:space="preserve" stroke="#0c0c0c" stroke-width="24.09" transform="rotate(0)">
<g id="SVGRepo_bgCarrier" stroke-width="0" transform="translate(39.599999999999994,39.599999999999994), scale(0.76)">
<path transform="translate(-267.3, -267.3), scale(27.01875)" d="M16,30.31909494494137C18.56127159640425,29.907445611854666,18.616589023581053,25.720191032768604,20.853053967419424,24.405736043444158C23.060794837000245,23.108163278375265,27.174610763214716,25.400798964283453,28.290139522165408,23.09571536150026C29.45048564546591,20.698022965932672,25.911292250491815,18.472762433217024,24.920949936697355,16C24.340651588499668,14.551066701388121,24.385665965165348,12.958553057492807,23.673879282448137,11.569483730549877C22.935569337906955,10.128653601747722,21.676843411722807,9.124427967307277,20.726237949081945,7.81391574352995C19.073473038777273,5.535400941008966,18.68820801039281,1.8249579599496475,16.000000000000004,0.9902129408560292C13.56216353652235,0.23321354297259678,11.163917561135172,2.5961554601605936,9.208949786757955,4.237555993913311C7.441044770910671,5.721897717940073,6.485590880831824,7.843198045947694,5.407013485197975,9.884136384156967C4.365217231536762,11.85547559755707,3.388635293707639,13.805721040762807,2.992835372686386,15.999999999999998C2.5390767996190857,18.515596483410118,1.4681449565321354,21.450813489584384,2.944196360195493,23.537771745928016C4.444193705209606,25.658586668701997,7.84892890102085,24.92789847339329,10.154174160212273,26.12526736671133C12.319289727048654,27.24985140818458,13.591156137453773,30.706245987774643,16,30.31909494494137" fill="#daa520" strokewidth="0"/>
</g>
<g id="SVGRepo_tracerCarrier" stroke-linecap="round" stroke-linejoin="round" stroke="#CCCCCC" stroke-width="7.26"/>
<g id="SVGRepo_iconCarrier"> <path id="XMLID_222_" d="M250.606,154.389l-150-149.996c-5.857-5.858-15.355-5.858-21.213,0.001 c-5.857,5.858-5.857,15.355,0.001,21.213l139.393,139.39L79.393,304.394c-5.857,5.858-5.857,15.355,0.001,21.213 C82.322,328.536,86.161,330,90,330s7.678-1.464,10.607-4.394l149.999-150.004c2.814-2.813,4.394-6.628,4.394-10.606 C255,161.018,253.42,157.202,250.606,154.389z"/> </g>
</svg>