<svg xmlns="http://www.w3.org/2000/svg" viewBox="0 0 30.14 9.95"><defs><style>.cls-1{fill:#daa628;}</style></defs><g id="Layer_2" data-name="Layer 2"><g id="Layer_1-2" data-name="Layer 1"><path class="cls-1" d="M10.55,2C13.2.68,15.9-.44,19.1.17c.48.09.52.12.24.61-.1.18-.05.21.1.27,2.09.87,4,2.14,6.75,1.72A6.61,6.61,0,0,0,29.77.9c-.2,2.84-2.43,4.27-5.2,5.43.86.3,1.47-.35,2.22-.3C23.58,9.66,12.45,12,9.5,7.45c3.82,1.42,5.27,1.58,8.34.88-.46-.63-1.77-.6-1.92-1.48A11.24,11.24,0,0,0,19,6c.89-.47.63-.66,0-1a12.8,12.8,0,0,0-4.09-1.15l2.3-1.44A10.72,10.72,0,0,0,10.55,2Z"/><path class="cls-1" d="M11.16,4.46l-.11,0-6.8-3-.11,0C3.91,1.25,3.85,1.11,4,1a1,1,0,0,1,.7-.28,2.08,2.08,0,0,1,.8.09l.08,0,7.56,3.33a.64.64,0,0,1,.27.18c.1.15,0,.28-.19.4l-.08,0L5.52,8.1a1.21,1.21,0,0,1-.32.1c-.54.11-1.19,0-1.3-.3s0-.25.22-.35l.11,0,6.81-3Z"/><path class="cls-1" d="M4.79,4.46l-.09,0L.36,2.5l-.08,0C0,2.35,0,2.21.06,2.06a1,1,0,0,1,.7-.28,2,2,0,0,1,.78.09l.11,0L6.73,4.15A.65.65,0,0,1,7,4.32c.11.15,0,.29-.18.41l-.08,0L1.63,7a1.6,1.6,0,0,1-.42.12C.66,7.21.08,7,0,6.79s0-.24.24-.33l.09,0L4.69,4.5Z"/><path class="cls-1" d="M10.92,2C13.57.68,16.27-.44,19.47.17c.48.09.51.12.24.61-.1.18-.05.21.09.27,2.1.87,4,2.14,6.76,1.72A6.61,6.61,0,0,0,30.14.9c-.2,2.84-2.43,4.27-5.2,5.43.86.3,1.47-.35,2.22-.3C24,9.66,12.82,12,9.87,7.45c3.81,1.42,5.27,1.58,8.34.88-.46-.63-1.77-.6-1.92-1.48A11.24,11.24,0,0,0,19.39,6c.89-.47.63-.66,0-1a12.79,12.79,0,0,0-4.1-1.15l2.3-1.44A10.69,10.69,0,0,0,10.92,2Z"/><path class="cls-1" d="M11.52,4.46l-.1,0-6.8-3-.11,0c-.23-.12-.3-.26-.19-.4A1,1,0,0,1,5,.69a2,2,0,0,1,.8.09l.09,0,7.56,3.33a.64.64,0,0,1,.27.18c.1.15,0,.28-.19.4l-.09,0L5.89,8.1a1.5,1.5,0,0,1-.32.1c-.54.11-1.19,0-1.3-.3s0-.25.22-.35l.11,0,6.81-3Z"/><path class="cls-1" d="M5.16,4.46l-.09,0L.73,2.5l-.08,0C.4,2.35.32,2.21.43,2.06a1,1,0,0,1,.7-.28,1.9,1.9,0,0,1,.77.09.43.43,0,0,1,.12,0L7.1,4.15a.65.65,0,0,1,.26.17c.11.15,0,.29-.18.41l-.08,0L2,7a1.57,1.57,0,0,1-.43.12C1,7.21.44,7,.38,6.79s0-.24.24-.33l.09,0L5.06,4.5Z"/></g></g></svg>